<svg width="52" height="64" viewBox="0 0 52 64" fill="none" xmlns="http://www.w3.org/2000/svg">
<path d="M18.692 35.2916C26.4801 14.4374 31.932 35.2916 31.932 35.2916C38.9413 47.7235 40.4991 56.5468 30.7638 56.5468L25.3121 61.3592L17.5238 56.1459C9.73545 46.1197 10.9039 56.1458 18.692 35.2916Z" fill="#FBD765"/>
<path d="M36.605 18.4478C35.4367 31.2811 31.7233 23.2603 25.7014 23.2603C19.6796 23.2603 15.1872 30.8801 14.0189 18.4478C14.0189 12.2462 19.6796 7.21875 25.7014 7.21875C31.7233 7.21875 36.605 12.2462 36.605 18.4478Z" fill="#FBD765"/>
<path fill-rule="evenodd" clip-rule="evenodd" d="M14.2728 0.324746C13.2759 0.975232 13.9414 2.14907 15.45 2.40133C17.3324 2.71654 18.7257 3.69989 19.5143 5.26996C20.137 6.51038 20.1296 6.57254 19.2884 7.17129C16.9165 8.85966 14.9032 11.1055 13.9317 13.1472C13.013 15.0774 12.8545 15.9107 12.8526 18.8187C12.851 21.5469 13.0255 22.5933 13.7268 24.0587C14.2085 25.0657 14.603 25.9981 14.603 26.1308C14.603 26.2636 12.4211 27.1206 9.75442 28.0362C4.2193 29.9359 2.84233 30.7648 1.18265 33.1963C0.0973536 34.7869 0 35.2011 0 38.2326C0 41.1674 0.11994 41.7224 1.07439 43.2075C2.64022 45.6446 4.79718 46.9672 7.673 47.2544C9.90162 47.4769 10.0881 47.574 10.4441 48.6961C11.0543 50.6199 13.1711 53.7829 14.955 55.4368C15.8608 56.2765 17.9189 57.6164 19.5287 58.4145C22.2608 59.7688 23.2869 60.7261 24.5619 63.1095C25.2266 64.3527 25.845 64.2965 26.5771 62.9266C27.8703 60.5067 28.5896 59.8494 31.5472 58.3832C36.1197 56.1165 39.4083 52.4378 40.8335 47.9943C41.0056 47.4577 41.4916 47.2925 42.8951 47.2925C48.8683 47.2925 53.0331 40.5093 50.6514 34.6597C49.2974 31.3339 47.6525 30.2018 40.765 27.8557C37.0928 26.6044 36.4051 26.2443 36.6387 25.6945C38.7268 20.7814 38.8506 16.8756 37.0395 13.0626C36.064 11.0092 33.8922 8.57894 31.7606 7.15565L30.8104 6.5212L31.583 5.15045C32.3642 3.76486 34.1562 2.59222 36.1181 2.18316C36.8599 2.02836 37.189 1.71154 37.189 1.15289C37.189 0.0480285 36.4098 -0.168132 34.4066 0.380891C32.1527 0.998893 30.4821 2.35641 29.6566 4.24129L28.9809 5.7849H25.5233H22.0657L21.4205 4.27859C20.7039 2.60586 18.9905 1.12001 16.9788 0.426208C15.4083 -0.115195 14.9718 -0.131637 14.2728 0.324746ZM29.7901 8.82437C33.6726 10.6319 36.0102 14.3563 36.0169 18.7445C36.0211 21.4916 34.7731 25.2353 33.8533 25.2353C33.5706 25.2353 31.5772 24.59 29.4229 23.8008L25.5066 22.3667L21.5903 23.8008C19.436 24.59 17.4426 25.2353 17.1599 25.2353C16.2401 25.2353 14.992 21.4916 14.9963 18.7445C15.0057 12.5885 19.4898 8.00826 25.5066 8.00826C27.2184 8.00826 28.6051 8.27254 29.7901 8.82437ZM22.0708 27.7418C21.4345 28.9 19.4726 32.5543 17.7109 35.8628C15.9492 39.1714 14.0473 42.397 13.4846 43.0306C9.03361 48.0428 0.936929 43.8632 1.92682 37.0648C2.10478 35.844 2.61452 34.827 3.62194 33.6828C4.9658 32.1568 5.66324 31.8332 14.0189 28.8635C18.945 27.1126 23.0323 25.67 23.1012 25.658C23.1705 25.646 22.7067 26.5836 22.0708 27.7418ZM47.3912 33.6836C51.6982 38.5719 47.621 46.0873 41.2003 45.0956C38.4347 44.6685 37.025 42.9171 32.3533 34.1055C30.0869 29.83 28.2325 26.2038 28.2325 26.0466C28.2325 25.8894 32.2189 27.1755 37.0916 28.9048C45.3495 31.8352 46.0485 32.1596 47.3912 33.6836ZM27.551 29.8035C28.5682 31.6515 29.4007 33.2745 29.4007 33.4101C29.4007 33.546 27.6484 33.6571 25.5066 33.6571C23.3648 33.6571 21.6124 33.5741 21.6124 33.4726C21.6124 33.0852 25.2675 26.4384 25.4789 26.4412C25.6012 26.4424 26.5339 27.9555 27.551 29.8035ZM33.8762 41.6727C34.2069 42.3312 35.0184 43.5042 35.6788 44.2794L36.8802 45.6883H25.5066H14.133L15.3343 44.2794C15.9948 43.5042 16.8063 42.3312 17.1369 41.6727L17.7382 40.4748H25.5066H33.275L33.8762 41.6727ZM34.7365 53.6245C34.164 54.2397 32.2049 55.5182 30.3824 56.4658C28.56 57.4131 26.7196 58.6455 26.2928 59.2049L25.5163 60.2212L24.4007 58.9912C23.7869 58.3146 21.9808 57.1235 20.387 56.3443C18.7931 55.5655 16.9823 54.3832 16.3628 53.7171L15.2362 52.506H25.5066H35.777L34.7365 53.6245Z" fill="black"/>
<path d="M19.7371 36.0935H30.8866L31.9319 38.4997H18.6918L19.7371 36.0935Z" fill="#444444"/>
<path d="M13.2401 48.1248H38.1625L36.9164 50.531H14.4862L13.2401 48.1248Z" fill="#404040"/>
</svg>
