<svg width="64" height="64" viewBox="0 0 64 64" fill="none" xmlns="http://www.w3.org/2000/svg">
<path d="M21.5642 9.59998V21.3334C21.5642 22.512 22.5189 23.4667 23.6976 23.4667C24.8762 23.4667 25.831 22.5121 25.831 21.3334C25.831 20.1547 26.7856 19.2 27.9644 19.2C29.143 19.2 30.0977 20.1546 30.0977 21.3334V22.4C30.0977 23.5786 31.0524 24.5333 32.2311 24.5333C33.4097 24.5333 34.3645 23.5787 34.3645 22.4V9.59998H21.5642Z" fill="#FBD765"/>
<path d="M56.7643 5.33337H35.431V9.6H56.7644C57.943 9.6 58.8978 8.64537 58.8978 7.46662C58.8978 6.28787 57.943 5.33337 56.7643 5.33337Z" fill="#965735"/>
<path d="M9.83098 28.7999H46.0976C47.8651 28.7999 49.2976 30.2324 49.2976 31.9999C49.2976 33.7674 47.8651 35.1999 46.0976 35.1999H9.83098C8.06348 35.1999 6.63098 33.7674 6.63098 31.9999C6.63098 30.2324 8.06348 28.7999 9.83098 28.7999Z" fill="#F0DBC2"/>
<path d="M45.031 62.9332H10.8976L7.50675 57.1732C3.271 49.9742 4.6885 40.7871 10.8976 35.1998H45.031C51.2411 40.7871 52.6587 49.9742 48.4219 57.1732L45.031 62.9332Z" fill="#F0DBC2"/>
<path d="M25.831 1.06665H30.0976C33.6325 1.06665 36.4976 3.93178 36.4976 7.46665C36.4976 11.0015 33.6325 13.8667 30.0976 13.8667H25.831C22.2961 13.8667 19.431 11.0015 19.431 7.46665C19.431 3.93178 22.2971 1.06665 25.831 1.06665Z" fill="#BF7341"/>
<path d="M50.2416 43.7334H5.68701C4.46676 48.2763 5.12276 53.119 7.50676 57.1734L10.8976 62.9334H45.031L48.4219 57.1734C50.807 53.1189 51.4619 48.2763 50.2416 43.7334Z" fill="#FBD765"/>
<path d="M29.0353 1.06665H26.9019V13.8667H29.0353V1.06665Z" fill="#FBD765"/>
<path d="M22.631 1.9296V13.0037C23.2903 13.3856 24.0134 13.6448 24.7644 13.7706V1.1626C24.0134 1.28847 23.2913 1.54772 22.631 1.9296Z" fill="#FBD765"/>
<path d="M31.1643 1.1626V13.7706C31.9152 13.6447 32.6384 13.3855 33.2977 13.0037V1.9296C32.6384 1.54772 31.9163 1.28847 31.1643 1.1626Z" fill="#FBD765"/>
<path d="M45.031 36.2666H16.231C15.6422 36.2666 15.1644 35.7887 15.1644 35.1999C15.1644 34.6112 15.6422 34.1333 16.231 34.1333H45.031C45.6197 34.1333 46.0976 34.6112 46.0976 35.1999C46.0976 35.7887 45.6207 36.2666 45.031 36.2666Z" fill="#E6CCAF"/>
<path d="M50.2416 43.7334H40.6416C38.3014 52.32 32.1925 59.3814 24.0325 62.9334H45.0309L48.4218 57.1734C50.807 53.1189 51.4619 48.2763 50.2416 43.7334Z" fill="#FFB75E"/>
<path d="M50.3642 32C50.3642 29.6438 48.4539 27.7334 46.0976 27.7334H9.831C7.48112 27.728 5.57175 29.6299 5.5675 31.9798C5.56325 33.8572 6.78987 35.5147 8.58612 36.0598C3.3595 42.1088 2.55625 50.8097 6.58725 57.7132L9.97812 63.4732C10.1701 63.7996 10.52 64.0001 10.8976 64.0001H45.031C45.4086 64.0001 45.7585 63.7996 45.9505 63.4742L49.3414 57.7142C53.3722 50.8107 52.5691 42.1099 47.3425 36.0608C49.1322 35.5179 50.359 33.8699 50.3642 32ZM7.69762 32C7.69762 30.8214 8.65225 29.8667 9.831 29.8667H46.0976C47.2762 29.8667 48.231 30.8213 48.231 32C48.231 33.1787 47.2764 34.1334 46.0976 34.1334H9.831C8.65337 34.1334 7.69762 33.1787 7.69762 32ZM44.6139 36.2667C46.4847 38.0427 47.9099 40.2358 48.7739 42.6667H7.1525C8.0165 40.2358 9.44162 38.0427 11.3125 36.2667H44.6139ZM47.5014 56.6283L44.4209 61.8667H11.5077L8.42725 56.6283C6.33762 53.0614 5.6625 48.8405 6.53812 44.8H49.3904C50.2661 48.8405 49.592 53.0614 47.5014 56.6283Z" fill="black"/>
<path d="M56.7643 4.26662H36.8336C35.5995 1.664 32.9776 0.00425 30.0976 0H25.831C21.7073 0 18.3644 3.34288 18.3644 7.46663C18.3644 11.5904 21.7073 14.9333 25.831 14.9333H30.0976C32.9776 14.929 35.5995 13.2692 36.8336 10.6666H56.7643C58.5318 10.6666 59.9643 9.23413 59.9643 7.46663C59.9643 5.69913 58.5318 4.26662 56.7643 4.26662ZM20.4976 7.46663C20.503 5.79725 21.2923 4.22613 22.631 3.22775V11.7056C21.2934 10.7072 20.503 9.136 20.4976 7.46663ZM24.7643 12.6934V2.24C25.1151 2.1685 25.4725 2.13337 25.8309 2.13337H26.8975V12.8H25.8309C25.4736 12.8 25.1153 12.7647 24.7643 12.6934ZM29.031 12.8V2.13337H30.0976C30.456 2.13337 30.8134 2.16863 31.1643 2.24V12.6934C30.8134 12.7649 30.456 12.8 30.0976 12.8H29.031ZM33.2976 11.7056V3.22775C35.639 4.96425 36.1285 8.26987 34.392 10.6112C34.0838 11.0273 33.7146 11.3962 33.2976 11.7056ZM56.7643 8.53337H37.479C37.5324 8.18025 37.5611 7.824 37.5644 7.46675C37.5611 7.10938 37.5324 6.75313 37.479 6.40013H56.7644C57.3531 6.40013 57.831 6.878 57.831 7.46675C57.831 8.0555 57.3541 8.53337 56.7643 8.53337Z" fill="black"/>
<path d="M20.4976 16V21.3334C20.4976 23.1009 21.9301 24.5334 23.6976 24.5334C25.4651 24.5334 26.8976 23.1009 26.8976 21.3334C26.8976 20.7446 27.3755 20.2668 27.9642 20.2668C28.553 20.2668 29.0309 20.7446 29.0309 21.3334V22.4C29.0309 24.1675 30.4634 25.6 32.2309 25.6C33.9984 25.6 35.4309 24.1675 35.4309 22.4V16H33.2975V22.4C33.2975 22.9887 32.8196 23.4666 32.2309 23.4666C31.6421 23.4666 31.1642 22.9887 31.1642 22.4V21.3334C31.1642 19.5659 29.7317 18.1334 27.9642 18.1334C26.1967 18.1334 24.7642 19.5659 24.7642 21.3334C24.7642 21.9221 24.2864 22.4 23.6976 22.4C23.1089 22.4 22.631 21.9221 22.631 21.3334V16H20.4976Z" fill="black"/>
</svg>
