<svg width="64" height="64" viewBox="0 0 64 64" fill="none" xmlns="http://www.w3.org/2000/svg">
<g clip-path="url(#clip0)">
<path d="M36.4655 42.6005L27.4699 47.7942L18.4742 42.6005V32.2134L27.4699 27.0197L36.4655 32.2134V42.6005Z" fill="#FBD765"/>
<path d="M54.4563 42.6005L45.4607 47.7942L36.465 42.6005V32.2134L45.4607 27.0197L54.4563 32.2134V42.6005Z" fill="#FBD765"/>
<path d="M18.505 42.6005L9.50939 47.7942L0.513763 42.6005V32.2134L9.50939 27.0197L18.505 32.2134V42.6005Z" fill="#FBD765"/>
<path d="M45.4606 58.1824L36.465 63.3761L27.4694 58.1824V47.7952L36.465 42.6016L45.4606 47.7952V58.1824Z" fill="#FBD765"/>
<path d="M63.4518 58.1824L54.4563 63.3761L45.4606 58.1824V47.7952L54.4563 42.6016L63.4518 47.7952V58.1824Z" fill="#FBD765"/>
<path d="M63.4518 27.0152L54.4563 32.2088L45.4606 27.0152V16.628L54.4563 11.4343L63.4518 16.628V27.0152Z" fill="#FBD765"/>
<path d="M54.4563 32.2122V42.5992L45.4603 47.7941L43.0858 46.4231L52.1324 41.2005V30.8705L54.4563 32.2122Z" fill="#F4A240"/>
<path d="M27.4694 58.1824L18.4738 63.3761L9.47827 58.1824V47.7952L18.4738 42.6016L27.4694 47.7952V58.1824Z" fill="#FBD765"/>
<path d="M63.452 16.6276V27.0148L54.4561 32.2095L52.1324 30.8705L61.1282 25.6159V15.2858L63.452 16.6276Z" fill="#F4A240"/>
<path d="M63.4517 47.7941V58.1814L54.4559 63.3761L52.0814 62.0053L61.128 56.7825V46.4524L63.4517 47.7941Z" fill="#F4A240"/>
<path d="M45.4606 47.7942V58.1815L36.4647 63.3762L34.0902 62.0053L43.0866 56.7325L43.0857 46.4232L45.4606 47.7942Z" fill="#F4A240"/>
<path d="M45.4606 27.0152L36.465 32.2088L27.4694 27.0152V16.628L36.465 11.4343L45.4606 16.628V27.0152Z" fill="#FBD765"/>
<path d="M45.4606 16.6271V27.0142L36.4648 32.209L34.1418 30.8706L43.0866 25.5651L43.0858 15.256L45.4606 16.6271Z" fill="#F4A240"/>
<path d="M27.4639 27.0152L18.4683 32.2088L9.47263 27.0152V16.628L18.4683 11.4343L27.4639 16.628V27.0152Z" fill="#FBD765"/>
<path d="M27.4687 16.627V27.0141L18.4729 32.2089L16.1814 30.8705L25.0949 25.565L25.094 15.2599L27.4687 16.627Z" fill="#F4A240"/>
<path d="M36.4655 32.2122V42.5992L27.4696 47.7941L25.0951 46.4231L34.1417 41.2005V30.8705L36.4655 32.2122Z" fill="#F4A240"/>
<path d="M27.4694 47.7942V58.1815L18.4735 63.3762L16.099 62.0053L25.0955 56.7325L25.0946 46.4232L27.4694 47.7942Z" fill="#F4A240"/>
<path d="M18.505 32.2122V42.5992L9.50911 47.7941L7.13474 46.4231L16.1814 41.2005V30.8705L18.505 32.2122Z" fill="#F4A240"/>
<path d="M2.814 3.92003C4.86275 1.6964 8.35838 1.55315 10.5821 3.60203L13.17 5.9864C15.3936 8.03515 15.5369 11.5308 13.488 13.7545C11.4393 15.9782 7.94363 16.1214 5.71988 14.0725L3.13213 11.6882C0.908377 9.63928 0.765252 6.14378 2.814 3.92003Z" fill="#FBD765"/>
<path d="M8.73877 15.4757L14.8156 8.87982C14.6555 8.12369 14.3356 7.39532 13.8584 6.75244L6.53964 14.6961C7.21939 15.1193 7.97152 15.3786 8.73877 15.4757Z" fill="#975D50"/>
<path d="M5.21453 13.6073L12.6648 5.52148L11.0876 4.0682L3.63728 12.154L5.21453 13.6073Z" fill="#975D50"/>
<path d="M7.56388 2.19849L1.48688 8.79424C1.6465 9.55099 1.96588 10.2787 2.443 10.9216L9.76175 2.97799C9.08213 2.55499 8.33063 2.29636 7.56388 2.19849Z" fill="#975D50"/>
<path d="M12.5877 11.6453L14.0867 12.5295L15.5857 13.4138C15.5857 13.4138 24.7239 8.33905 22.7624 3.4573C22.5894 3.0268 22.327 2.6208 22.0101 2.2498C21.7376 1.93067 21.2784 1.57205 20.8955 1.3453C20.7914 1.28355 20.687 1.22217 20.5826 1.16067C20.1991 0.935172 19.663 0.706547 19.2519 0.622547C18.7739 0.524797 18.2916 0.491422 17.8311 0.548172C12.6096 1.1928 12.5877 11.6453 12.5877 11.6453Z" fill="#CCCCCC"/>
<path d="M11.3122 13.0299L12.3161 14.4517L13.32 15.8734C13.32 15.8734 9.00924 25.3958 3.98349 23.8398C3.54024 23.7027 3.11424 23.4743 2.71862 23.1888C2.37837 22.9433 1.98324 22.5149 1.72599 22.1517C1.65599 22.0529 1.58624 21.9539 1.51649 21.855C1.26037 21.4913 0.988867 20.9757 0.871242 20.5727C0.734742 20.1043 0.661992 19.6264 0.680992 19.1628C0.896367 13.906 11.3122 13.0299 11.3122 13.0299Z" fill="#CCCCCC"/>
<path d="M14.1195 18.4867C16.412 18.4867 18.2705 16.6282 18.2705 14.3357C18.2705 12.0432 16.412 10.1847 14.1195 10.1847C11.827 10.1847 9.96851 12.0432 9.96851 14.3357C9.96851 16.6282 11.827 18.4867 14.1195 18.4867Z" fill="#975D50"/>
<path d="M63.5315 27.9619C63.8213 27.7945 64 27.4852 64 27.1505V16.8972C64 16.5625 63.8214 16.2532 63.5315 16.0859L54.6519 10.9592C54.3621 10.7919 54.0047 10.7919 53.715 10.9592L45.3039 15.8155L36.8927 10.9592C36.603 10.7919 36.2456 10.7919 35.9559 10.9592L27.542 15.817L19.815 11.3557C22.9721 8.59798 24.123 5.8886 23.1435 3.44548C22.9472 2.95598 22.6507 2.4766 22.262 2.02085C21.8872 1.5811 21.3396 1.1791 20.9526 0.949726L20.6483 0.76985C20.2604 0.541225 19.644 0.2556 19.078 0.139225C18.4914 0.0186004 17.9285 -0.00989963 17.4048 0.0541004C14.9671 0.352975 13.5326 2.33473 12.6897 4.64835L11.1589 3.2361C9.93813 2.10973 8.34737 1.5261 6.67662 1.5936C5.32512 1.64798 4.059 2.12323 3.028 2.94985L1.96475 1.96885C1.58438 1.61798 0.99175 1.64185 0.64075 2.0221C0.289875 2.40235 0.313875 2.99523 0.694125 3.34598L1.75738 4.3271C0.27875 6.51085 0.347 9.40748 1.89988 11.5184C1.90725 11.5287 1.91525 11.5387 1.923 11.5489C2.14987 11.8532 2.40625 12.1419 2.69513 12.4086L4.2405 13.8346C2.02975 14.8536 0.12675 16.4396 0.0245 18.8902C0.0025 19.4171 0.07625 19.9757 0.2435 20.5509C0.40475 21.1054 0.739 21.6967 0.99775 22.065C1.06562 22.1615 1.1335 22.258 1.2015 22.354C1.4615 22.7217 1.90612 23.2352 2.37462 23.5737C2.86 23.9245 3.3615 24.1816 3.86538 24.3381C4.324 24.4804 4.78537 24.5511 5.2495 24.5511C6.44075 24.5511 7.646 24.084 8.84325 23.1655V26.6352L0.4685 31.4701C0.178625 31.6375 0 31.9467 0 32.2814V42.5345C0 42.8692 0.178625 43.1785 0.4685 43.3459L8.84875 48.1842V57.9155C8.84875 58.2502 9.02738 58.5595 9.31725 58.7269L18.1969 63.8535C18.3417 63.9372 18.5035 63.979 18.6654 63.979C18.8271 63.979 18.9889 63.9371 19.1339 63.8535L27.545 58.9972L35.9561 63.8535C36.101 63.9372 36.2627 63.979 36.4246 63.979C36.5864 63.979 36.7481 63.9371 36.8931 63.8535L45.3042 58.9972L53.7154 63.8535C53.8602 63.9372 54.022 63.979 54.1839 63.979C54.3456 63.979 54.5074 63.9371 54.6524 63.8535L63.532 58.7269C63.8218 58.5595 64.0005 58.2502 64.0005 57.9155V47.6622C64.0005 47.3275 63.8219 47.0182 63.532 46.8509L55.1209 41.9946V32.8176L63.5315 27.9619ZM28.4816 17.4381L36.4244 12.8525L44.3671 17.4381V26.6095L36.4244 31.1951L28.4816 26.6095V17.4381ZM10.717 21.3486C11.296 20.6687 11.8701 19.8832 12.4369 18.9919C12.9213 19.1444 13.4239 19.2215 13.9261 19.2215C14.5235 19.2215 15.1198 19.1132 15.6838 18.8999L15.9625 19.9329C16.0752 20.3507 16.4534 20.6259 16.8664 20.6259C16.9471 20.6259 17.0294 20.6154 17.1111 20.5932C17.6106 20.4585 17.9064 19.9441 17.7716 19.4446L17.3421 17.8534C17.4161 17.7825 17.4889 17.7097 17.5592 17.6335C17.6295 17.5574 17.696 17.4789 17.761 17.3992L19.3815 17.6995C19.4394 17.7101 19.4966 17.7154 19.5534 17.7154C19.9961 17.7154 20.3899 17.4001 20.4734 16.949C20.5678 16.4402 20.2316 15.9514 19.723 15.8571L18.6735 15.6626C18.82 15.1569 18.8867 14.6256 18.865 14.0841C18.848 13.6609 18.7776 13.248 18.6588 12.8527L18.6594 12.8524L26.6021 17.438V26.6094L18.6737 31.1867L10.7168 26.5927V21.3484H10.717V21.3486ZM17.6327 1.91423C17.954 1.87485 18.3134 1.89523 18.7006 1.97473C18.9686 2.02985 19.3875 2.2021 19.6971 2.38435L19.9965 2.56135C20.3055 2.7446 20.6587 3.0286 20.8361 3.2366C21.0926 3.53735 21.2837 3.84235 21.4042 4.14273C22.3692 6.54973 19.5766 9.2406 17.4767 10.845C17.4126 10.7789 17.347 10.7141 17.2789 10.6511C16.3089 9.75598 15.0496 9.2931 13.7297 9.34523C13.6711 9.3476 13.6131 9.35223 13.555 9.35648C13.8544 6.88535 14.7934 2.26235 17.6327 1.91423ZM13.805 11.2176C13.8471 11.216 13.8892 11.2151 13.9311 11.2151C14.7037 11.2151 15.4371 11.5014 16.0082 12.0284C16.6104 12.584 16.9601 13.3407 16.9931 14.1595C17.026 14.9782 16.738 15.7607 16.1825 16.3627C15.0353 17.6057 13.0911 17.6837 11.8481 16.5369C11.246 15.9812 10.8962 15.2244 10.8632 14.4057C10.8496 14.0667 10.8919 13.7341 10.9844 13.4176C10.9873 13.4074 10.9905 13.3974 10.9931 13.387C11.1257 12.951 11.3556 12.547 11.6737 12.2022C12.2294 11.6002 12.9862 11.2505 13.805 11.2176ZM3.96587 11.0314C3.95287 11.0194 3.94075 11.0066 3.92788 10.9944L6.71875 7.96985C7.06975 7.5896 7.04575 6.99685 6.6655 6.64598C6.28513 6.2951 5.69263 6.31898 5.34163 6.69923L2.85462 9.3946C2.27712 7.89148 2.554 6.12298 3.7175 4.86173C3.71762 4.8616 3.71788 4.86148 3.718 4.86123C3.71812 4.8611 3.71825 4.86085 3.71837 4.86073C4.50525 4.0081 5.5825 3.51285 6.75175 3.46573C7.23812 3.4461 7.71425 3.50623 8.16613 3.63823L7.76625 4.0716C7.41525 4.45185 7.43925 5.0446 7.8195 5.39548C7.99963 5.56173 8.2275 5.64385 8.45463 5.64385C8.70712 5.64385 8.95875 5.54248 9.14338 5.34235L9.84825 4.57835C9.86138 4.59023 9.875 4.60135 9.88813 4.61335L11.2074 5.83073L8.65413 8.5976C8.30313 8.97785 8.32712 9.5706 8.70737 9.92148C8.88737 10.0877 9.11537 10.1699 9.3425 10.1699C9.595 10.1699 9.8465 10.0685 10.0312 9.86835L11.8691 7.8766C11.7489 8.59623 11.6669 9.2891 11.6114 9.91598C11.1254 10.1744 10.681 10.5152 10.2968 10.9319C9.91238 11.3484 9.60825 11.8186 9.38975 12.324C8.79925 12.4251 8.107 12.5641 7.37025 12.7524L7.86637 12.2147C8.21737 11.8345 8.19338 11.2417 7.81313 10.8909C7.433 10.5399 6.84013 10.5637 6.48925 10.9441L5.28525 12.2487L3.96587 11.0314ZM4.421 22.5482C4.11175 22.4522 3.7925 22.2861 3.47213 22.0547C3.25038 21.8946 2.939 21.5655 2.73137 21.2717C2.66462 21.1772 2.598 21.0829 2.53113 20.9877C2.3245 20.6937 2.119 20.2897 2.04288 20.0274C1.9325 19.6477 1.88337 19.2911 1.89675 18.9679C2.01537 16.1262 6.43012 14.8229 8.98812 14.3055C8.9885 14.3639 8.9885 14.4221 8.99088 14.4809C9.044 15.7996 9.60738 17.0189 10.5774 17.9139C10.6458 17.9769 10.7156 18.0369 10.7864 18.0954C9.412 20.2277 6.92088 23.3246 4.421 22.5482ZM1.87375 41.9937V32.8225L9.80212 28.2451L17.7289 32.8216V41.9949L9.80212 46.5714L1.87375 41.9937ZM26.6079 57.3747L18.6651 61.9604L10.7225 57.3747V48.22L18.6795 43.626L26.6079 48.2034V57.3747ZM19.633 42.0114V32.8049L27.5454 28.2366L35.4876 32.8221V41.994L27.5454 46.5795L19.633 42.0114ZM44.367 57.3747L36.4243 61.9604L28.4815 57.3747V48.2034L36.4243 43.6177L44.367 48.2034V57.3747ZM37.3618 41.9941V32.8222L45.304 28.2367L53.2467 32.8225V41.9939L45.304 46.5796L37.3618 41.9941ZM62.1263 48.2034V57.3747L54.1835 61.9604L46.2407 57.3747V48.2034L54.1835 43.6177L62.1263 48.2034ZM54.1835 31.1952L46.2407 26.6096V17.4382L54.1835 12.8526L62.1263 17.4382V26.6096L54.1835 31.1952Z" fill="black"/>
<path d="M12.8654 23.08C13.4759 23.08 13.9709 22.5851 13.9709 21.9745C13.9709 21.364 13.4759 20.869 12.8654 20.869C12.2548 20.869 11.7599 21.364 11.7599 21.9745C11.7599 22.5851 12.2548 23.08 12.8654 23.08Z" fill="black"/>
<path d="M13.5736 56.6744C14.1842 56.6744 14.6791 56.1794 14.6791 55.5689C14.6791 54.9583 14.1842 54.4634 13.5736 54.4634C12.9631 54.4634 12.4681 54.9583 12.4681 55.5689C12.4681 56.1794 12.9631 56.6744 13.5736 56.6744Z" fill="black"/>
<path d="M16.8253 59.5963C17.4358 59.5963 17.9308 59.1013 17.9308 58.4908C17.9308 57.8802 17.4358 57.3853 16.8253 57.3853C16.2147 57.3853 15.7198 57.8802 15.7198 58.4908C15.7198 59.1013 16.2147 59.5963 16.8253 59.5963Z" fill="black"/>
<path d="M40.8759 35.0071C41.4864 35.0071 41.9814 34.5122 41.9814 33.9016C41.9814 33.2911 41.4864 32.7961 40.8759 32.7961C40.2653 32.7961 39.7704 33.2911 39.7704 33.9016C39.7704 34.5122 40.2653 35.0071 40.8759 35.0071Z" fill="black"/>
<path d="M22.6227 35.0071C23.2333 35.0071 23.7282 34.5122 23.7282 33.9016C23.7282 33.2911 23.2333 32.7961 22.6227 32.7961C22.0122 32.7961 21.5172 33.2911 21.5172 33.9016C21.5172 34.5122 22.0122 35.0071 22.6227 35.0071Z" fill="black"/>
<path d="M49.3515 56.3409C49.9621 56.3409 50.457 55.8459 50.457 55.2354C50.457 54.6248 49.9621 54.1299 49.3515 54.1299C48.741 54.1299 48.246 54.6248 48.246 55.2354C48.246 55.8459 48.741 56.3409 49.3515 56.3409Z" fill="black"/>
</g>
<defs>
<clipPath id="clip0">
<rect width="64" height="64" fill="white"/>
</clipPath>
</defs>
</svg>
