<svg width="34" height="34" viewBox="0 0 34 34" fill="none" xmlns="http://www.w3.org/2000/svg">
<path d="M16.9976 12.3821C14.4422 12.3821 12.3798 14.4445 12.3798 17C12.3798 19.5555 14.4422 21.6179 16.9976 21.6179C19.553 21.6179 21.6154 19.5555 21.6154 17C21.6154 14.4445 19.553 12.3821 16.9976 12.3821ZM16.9976 20.0013C15.345 20.0013 13.9964 18.6526 13.9964 17C13.9964 15.3474 15.345 13.9987 16.9976 13.9987C18.6502 13.9987 19.9988 15.3474 19.9988 17C19.9988 18.6526 18.6502 20.0013 16.9976 20.0013ZM21.8045 11.1168C21.2078 11.1168 20.726 11.5986 20.726 12.1953C20.726 12.7919 21.2078 13.2737 21.8045 13.2737C22.4011 13.2737 22.8829 12.7942 22.8829 12.1953C22.8831 12.0536 22.8554 11.9133 22.8012 11.7823C22.7471 11.6514 22.6677 11.5324 22.5675 11.4323C22.4673 11.3321 22.3483 11.2526 22.2174 11.1985C22.0865 11.1444 21.9462 11.1166 21.8045 11.1168ZM25.999 17C25.999 15.7572 26.0103 14.5256 25.9405 13.285C25.8707 11.844 25.5419 10.5652 24.4883 9.51144C23.4323 8.45548 22.1557 8.12901 20.7148 8.05921C19.472 7.98941 18.2404 8.00067 16.9998 8.00067C15.757 8.00067 14.5255 7.98941 13.2849 8.05921C11.8439 8.12901 10.5651 8.45773 9.51141 9.51144C8.45547 10.5674 8.129 11.844 8.05921 13.285C7.98941 14.5278 8.00067 15.7594 8.00067 17C8.00067 18.2406 7.98941 19.4744 8.05921 20.715C8.129 22.156 8.45772 23.4348 9.51141 24.4886C10.5674 25.5445 11.8439 25.871 13.2849 25.9408C14.5277 26.0106 15.7593 25.9993 16.9998 25.9993C18.2426 25.9993 19.4742 26.0106 20.7148 25.9408C22.1557 25.871 23.4346 25.5423 24.4883 24.4886C25.5442 23.4326 25.8707 22.156 25.9405 20.715C26.0125 19.4744 25.999 18.2428 25.999 17ZM24.0177 22.3091C23.8533 22.7189 23.6552 23.0251 23.3377 23.3403C23.0203 23.6577 22.7163 23.8559 22.3066 24.0202C21.1223 24.4908 18.3102 24.385 16.9976 24.385C15.685 24.385 12.8706 24.4908 11.6863 24.0225C11.2766 23.8581 10.9704 23.66 10.6552 23.3425C10.3377 23.0251 10.1396 22.7211 9.97522 22.3113C9.50691 21.1248 9.61273 18.3126 9.61273 17C9.61273 15.6874 9.50691 12.873 9.97522 11.6887C10.1396 11.2789 10.3377 10.9727 10.6552 10.6575C10.9726 10.3423 11.2766 10.1419 11.6863 9.97751C12.8706 9.50919 15.685 9.61501 16.9976 9.61501C18.3102 9.61501 21.1245 9.50919 22.3088 9.97751C22.7186 10.1419 23.0248 10.34 23.34 10.6575C23.6575 10.9749 23.8556 11.2789 24.0199 11.6887C24.4883 12.873 24.3824 15.6874 24.3824 17C24.3824 18.3126 24.4883 21.1248 24.0177 22.3091Z" fill="black"/>
<circle cx="17" cy="17" r="16.5" stroke="black"/>
</svg>
