<svg width="44" height="54" viewBox="0 0 44 54" fill="none" xmlns="http://www.w3.org/2000/svg">
<path d="M22 32.3333C27.8826 32.3333 32.6666 27.5493 32.6666 21.6667C32.6666 15.784 27.8826 11 22 11C16.1173 11 11.3333 15.784 11.3333 21.6667C11.3333 27.5493 16.1173 32.3333 22 32.3333ZM22 16.3333C24.9413 16.3333 27.3333 18.7253 27.3333 21.6667C27.3333 24.608 24.9413 27 22 27C19.0586 27 16.6666 24.608 16.6666 21.6667C16.6666 18.7253 19.0586 16.3333 22 16.3333Z" fill="#444444"/>
<path d="M20.4533 53.1706C20.9047 53.4929 21.4454 53.6662 22 53.6662C22.5546 53.6662 23.0953 53.4929 23.5467 53.1706C24.3573 52.5972 43.4107 38.8399 43.3333 21.6666C43.3333 9.90392 33.7627 0.333252 22 0.333252C10.2373 0.333252 0.666678 9.90392 0.666678 21.6532C0.589344 38.8399 19.6427 52.5972 20.4533 53.1706ZM22 5.66658C30.824 5.66658 38 12.8426 38 21.6799C38.056 33.5146 26.2987 44.1413 22 47.6266C17.704 44.1386 5.94401 33.5093 6.00001 21.6666C6.00001 12.8426 13.176 5.66658 22 5.66658Z" fill="#444444"/>
</svg>
