<svg width="64" height="44" viewBox="0 0 64 44" fill="none" xmlns="http://www.w3.org/2000/svg">
<path d="M0 0V4H38V34H25.688C24.796 30.562 21.704 28 18 28C14.296 28 11.204 30.562 10.312 34H8V24H4V38H10.312C11.204 41.438 14.296 44 18 44C21.704 44 24.796 41.438 25.688 38H42.312C43.204 41.438 46.296 44 50 44C53.704 44 56.796 41.438 57.688 38H64V21.688L63.874 21.374L59.874 9.374L59.44 8H42V0H0ZM2 8V12H20V8H2ZM42 12H56.562L60 22.25V34H57.688C56.796 30.562 53.704 28 50 28C46.296 28 43.204 30.562 42.312 34H42V12ZM4 16V20H16V16H4ZM18 32C20.234 32 22 33.766 22 36C22 38.234 20.234 40 18 40C15.766 40 14 38.234 14 36C14 33.766 15.766 32 18 32ZM50 32C52.234 32 54 33.766 54 36C54 38.234 52.234 40 50 40C47.766 40 46 38.234 46 36C46 33.766 47.766 32 50 32Z" fill="#444444"/>
</svg>
