<svg width="34" height="34" viewBox="0 0 34 34" fill="none" xmlns="http://www.w3.org/2000/svg">
<path d="M8.1275 13.9835C8.07751 12.8838 8.22551 11.8619 8.41042 11.057C9.30648 11.9703 10.3495 12.7334 11.5 13.3126C13.2225 14.1796 15.1327 14.6071 17.0604 14.5571C17.6025 14.5431 18.0345 14.0996 18.0345 13.5574V12.5543H18.0346L18.0344 12.5409C18.0248 11.8252 18.2353 11.1238 18.6373 10.5316C19.0393 9.93939 19.6135 9.48493 20.2822 9.2297C20.951 8.97446 21.6819 8.93076 22.3763 9.1045C23.0707 9.27824 23.6949 9.66104 24.1646 10.2011C24.4228 10.4979 24.8309 10.6158 25.2075 10.5024C25.4433 10.4314 25.6766 10.3532 25.907 10.268C25.7158 10.5187 25.5065 10.7566 25.2803 10.9796C25.0427 11.214 24.9376 11.5515 25.0003 11.8794C25.041 12.0925 25.062 12.3089 25.0628 12.5259C25.0622 17.9431 22.4906 21.7304 18.9471 23.6164C16.337 25.0057 13.1451 25.3919 9.96055 24.5778C11.2424 24.21 12.4662 23.6399 13.5836 22.8814C13.884 22.6775 14.0503 22.3267 14.018 21.9651C13.9857 21.6034 13.7599 21.2877 13.4281 21.1402C11.331 20.2081 10.0507 19.0144 9.2743 17.7886C8.49388 16.5563 8.18417 15.2303 8.1275 13.9835Z" stroke="black" stroke-width="2" stroke-linecap="round" stroke-linejoin="round"/>
<circle cx="17" cy="17" r="16.5" stroke="black"/>
</svg>
