<svg width="34" height="34" viewBox="0 0 34 34" fill="none" xmlns="http://www.w3.org/2000/svg">
<path d="M16.9761 23C19.8281 23 18.8112 21.2416 19.0313 20.736C19.028 20.3584 19.0248 19.9952 19.0379 19.7744C19.2186 19.824 19.6449 20.0344 20.5255 20.868C21.8849 22.204 22.2324 23 23.3306 23H25.3522C25.9929 23 26.3264 22.7416 26.4931 22.5248C26.6541 22.3152 26.8118 21.9472 26.6393 21.3744C26.1884 19.9952 23.5582 17.6136 23.3947 17.3624C23.4194 17.316 23.4588 17.2544 23.4793 17.2224H23.4777C23.9968 16.5544 25.9781 13.6632 26.2697 12.5064C26.2705 12.5048 26.2713 12.5024 26.2713 12.5C26.429 11.972 26.2845 11.6296 26.135 11.436C25.9099 11.1464 25.5518 11 25.0679 11H23.0464C22.3696 11 21.8562 11.332 21.5966 11.9376C21.1621 13.0136 19.9415 15.2264 19.0264 16.0096C18.9985 14.9 19.0174 14.0528 19.0322 13.4232C19.0617 12.1952 19.157 11 17.8485 11H14.6712C13.8515 11 13.067 11.872 13.9164 12.9072C14.6589 13.8144 14.1833 14.32 14.3435 16.8368C13.7192 16.1848 12.6087 14.424 11.8234 12.1736C11.6032 11.5648 11.2697 11.0008 10.3309 11.0008H8.30934C7.48957 11.0008 7 11.436 7 12.1648C7 13.8016 10.7202 23 16.9761 23ZM10.3309 12.2008C10.5091 12.2008 10.5272 12.2008 10.6594 12.5664C11.4636 14.8728 13.2674 18.2856 14.585 18.2856C15.5748 18.2856 15.5748 17.2976 15.5748 16.9256L15.574 13.964C15.5198 12.984 15.1534 12.496 14.9127 12.2L17.7943 12.2032C17.7959 12.2168 17.7778 15.4792 17.8025 16.2696C17.8025 17.392 18.7175 18.0352 20.146 16.6272C21.6533 14.9704 22.6957 12.4936 22.7376 12.3928C22.7992 12.2488 22.8526 12.2 23.0464 12.2H25.0679H25.0762C25.0753 12.2024 25.0753 12.2048 25.0745 12.2072C24.8897 13.0472 23.0653 15.724 22.455 16.5552C22.4452 16.568 22.4361 16.5816 22.4271 16.5952C22.1585 17.0224 21.94 17.4944 22.464 18.1584H22.4649C22.5125 18.2144 22.6365 18.3456 22.8173 18.528C23.3791 19.0928 25.3062 21.024 25.477 21.792C25.3637 21.8096 25.2404 21.7968 23.3306 21.8008C22.924 21.8008 22.6061 21.2088 21.3929 20.0168C20.3021 18.9832 19.594 18.5608 18.9492 18.5608C17.6973 18.5608 17.7885 19.5504 17.8 20.7472C17.8041 22.0448 17.7959 21.6344 17.805 21.716C17.7318 21.744 17.5224 21.8 16.9761 21.8C11.7642 21.8 8.37013 13.7432 8.23952 12.2032C8.2847 12.1992 8.90651 12.2016 10.3309 12.2008Z" fill="black"/>
<circle cx="17" cy="17" r="16.5" stroke="black"/>
</svg>
